<svg width="281" height="222" viewBox="0 0 281 222" fill="none" xmlns="http://www.w3.org/2000/svg">
<path d="M187.04 74.426C185.9 77.936 183.93 79.586 181.8 78.896C181.492 78.8144 181.203 78.6701 180.953 78.472C180.703 78.2739 180.496 78.0264 180.346 77.7448C180.196 77.4632 180.105 77.1537 180.08 76.8356C180.055 76.5175 180.096 76.1976 180.2 75.896C179.547 76.4715 178.751 76.8598 177.895 77.02C177.04 77.1802 176.157 77.1062 175.34 76.806C173.998 76.2921 172.905 75.2832 172.285 73.9871C171.666 72.691 171.567 71.2065 172.009 69.8397C172.452 68.4729 173.401 67.3278 174.663 66.6406C175.925 65.9534 177.402 65.7763 178.79 66.146C179.613 66.3793 180.36 66.8259 180.955 67.4404C181.551 68.055 181.973 68.8158 182.18 69.646L182.85 67.556L184.2 67.996L181.66 75.816C181.28 76.976 181.73 77.576 182.43 77.816C183.71 78.226 185.05 76.906 185.96 74.116C187.53 69.266 185.09 64.916 180.09 63.286C175.09 61.656 170.48 63.916 168.89 68.816C167.3 73.716 169.6 78.246 174.62 79.816C175.993 80.2655 177.45 80.3955 178.88 80.196V81.326C177.326 81.5175 175.748 81.3638 174.26 80.876C168.58 79.036 165.96 73.876 167.74 68.396C169.52 62.916 174.74 60.336 180.41 62.186C186.08 64.036 188.79 68.976 187.04 74.426ZM181.18 72.776C181.388 71.9934 181.361 71.1672 181.104 70.3995C180.846 69.6318 180.37 68.9565 179.733 68.4569C179.095 67.9574 178.326 67.6557 177.519 67.5891C176.712 67.5224 175.903 67.6939 175.193 68.0821C174.483 68.4704 173.901 69.0584 173.522 69.7735C173.142 70.4885 172.98 71.2992 173.057 72.1052C173.133 72.9113 173.444 73.6772 173.951 74.3083C174.458 74.9394 175.139 75.4079 175.91 75.656C176.447 75.8499 177.019 75.9268 177.588 75.8815C178.157 75.8361 178.709 75.6695 179.208 75.3929C179.707 75.1164 180.142 74.7362 180.482 74.2779C180.822 73.8196 181.06 73.2939 181.18 72.736V72.776Z" fill="var(--secondary)"/>
<path d="M64.5 86.046C64.72 88.906 63.79 90.676 62.05 90.806C61.8025 90.8411 61.5505 90.8242 61.3099 90.7565C61.0693 90.6887 60.8455 90.5717 60.6527 90.4127C60.4598 90.2537 60.3022 90.0563 60.1898 89.8331C60.0774 89.6098 60.0128 89.3656 60 89.116C59.7037 89.7269 59.2463 90.2452 58.6771 90.6153C58.1079 90.9854 57.4485 91.1931 56.77 91.216C55.6544 91.2381 54.5726 90.8325 53.7464 90.0826C52.9202 89.3326 52.4122 88.2949 52.3265 87.1824C52.2408 86.0699 52.584 84.9667 53.2856 84.0991C53.9872 83.2314 54.9942 82.665 56.1 82.516C56.7625 82.4409 57.4331 82.5418 58.0441 82.8087C58.6551 83.0756 59.1849 83.4989 59.58 84.036L59.44 82.326L60.54 82.246L61.03 88.636C61.11 89.576 61.6 89.876 62.18 89.836C63.18 89.756 63.8 88.406 63.62 86.126C63.31 82.126 60.26 79.756 56.18 80.066C52.1 80.376 49.45 83.376 49.76 87.366C49.7896 88.279 50.0104 89.1757 50.4081 89.998C50.8059 90.8204 51.3718 91.5501 52.0692 92.1401C52.7666 92.7301 53.5801 93.1672 54.457 93.4231C55.3339 93.6791 56.2547 93.7482 57.16 93.626C58.2815 93.5351 59.3683 93.1934 60.34 92.626L60.69 93.436C59.6263 94.0248 58.4438 94.3666 57.23 94.436C56.2071 94.5732 55.1668 94.4955 54.1756 94.2078C53.1845 93.9201 52.2642 93.4289 51.4737 92.7654C50.6831 92.1019 50.0397 91.2808 49.5845 90.3545C49.1293 89.4282 48.8723 88.4172 48.83 87.386C48.49 82.906 51.46 79.516 56.12 79.156C60.78 78.796 64.11 81.626 64.5 86.046ZM59.79 86.596C59.7079 85.9717 59.4445 85.3852 59.0325 84.909C58.6205 84.4328 58.0779 84.0879 57.4719 83.9169C56.8658 83.7459 56.223 83.7564 55.6228 83.947C55.0227 84.1376 54.4916 84.5 54.0953 84.9893C53.6989 85.4786 53.4548 86.0734 53.393 86.7001C53.3313 87.3267 53.4546 87.9577 53.7478 88.515C54.0409 89.0723 54.491 89.5314 55.0424 89.8355C55.5938 90.1396 56.2222 90.2754 56.85 90.226C57.2894 90.2019 57.719 90.086 58.1109 89.8857C58.5028 89.6855 58.8484 89.4053 59.1254 89.0633C59.4024 88.7213 59.6046 88.325 59.7191 87.9001C59.8336 87.4751 59.8577 87.0309 59.79 86.596Z" fill="var(--text)"/>
<path d="M176.18 216.056C174.91 219.166 173 220.516 171.12 219.736C170.844 219.643 170.591 219.493 170.377 219.297C170.163 219.1 169.992 218.861 169.875 218.595C169.758 218.329 169.698 218.041 169.699 217.75C169.7 217.459 169.762 217.172 169.88 216.906C169.246 217.379 168.497 217.672 167.711 217.757C166.924 217.841 166.13 217.713 165.41 217.386C164.225 216.829 163.3 215.837 162.826 214.616C162.353 213.396 162.366 212.04 162.865 210.829C163.364 209.618 164.309 208.646 165.505 208.113C166.701 207.58 168.056 207.527 169.29 207.966C170.025 208.24 170.674 208.705 171.17 209.313C171.666 209.921 171.99 210.651 172.11 211.426L172.87 209.576L174.06 210.066L171.21 216.986C170.79 217.986 171.15 218.586 171.77 218.836C172.9 219.306 174.21 218.206 175.23 215.736C176.99 211.446 175.08 207.326 170.66 205.506C166.24 203.686 161.91 205.406 160.12 209.736C158.33 214.066 160.12 218.326 164.55 220.156C165.762 220.655 167.071 220.873 168.38 220.796L168.32 221.796C166.896 221.871 165.474 221.621 164.16 221.066C159.16 219.006 157.16 214.136 159.16 209.296C161.16 204.456 166.05 202.486 171.09 204.556C176.13 206.626 178.11 211.276 176.18 216.056ZM170.99 214.156C171.233 213.461 171.267 212.709 171.088 211.995C170.908 211.28 170.524 210.634 169.981 210.136C169.439 209.637 168.762 209.309 168.035 209.191C167.308 209.073 166.562 209.171 165.89 209.472C165.217 209.773 164.648 210.265 164.252 210.886C163.856 211.507 163.651 212.23 163.661 212.967C163.672 213.704 163.898 214.421 164.312 215.03C164.726 215.64 165.309 216.114 165.99 216.396C166.462 216.606 166.973 216.714 167.49 216.714C168.007 216.713 168.518 216.603 168.99 216.392C169.462 216.181 169.883 215.872 170.228 215.487C170.573 215.102 170.832 214.648 170.99 214.156Z" fill="var(--secondary)"/>
<path d="M262.518 163.974L262.518 163.975C261.897 165.478 261.149 166.498 260.382 167.052C259.637 167.591 258.873 167.696 258.11 167.383L258.096 167.378L258.082 167.373C257.872 167.301 257.678 167.186 257.515 167.035C257.351 166.885 257.22 166.702 257.13 166.499C257.041 166.295 256.994 166.075 256.994 165.852C256.994 165.63 257.039 165.41 257.128 165.206L257.892 163.457L257.592 163.683C257.884 163.302 258.108 162.872 258.255 162.413C258.523 161.629 258.557 160.783 258.351 159.979C258.146 159.174 257.709 158.447 257.095 157.887C256.481 157.327 255.716 156.959 254.896 156.828C254.075 156.697 253.234 156.809 252.476 157.15C251.718 157.491 251.076 158.046 250.63 158.747C250.184 159.448 249.953 160.264 249.964 161.095C249.976 161.926 250.231 162.736 250.697 163.424C251.162 164.11 251.818 164.646 252.583 164.965C253.118 165.202 253.698 165.324 254.284 165.322C254.565 165.322 254.845 165.292 255.119 165.236C254.901 165.3 254.676 165.345 254.448 165.37C253.752 165.446 253.048 165.333 252.41 165.042C251.343 164.539 250.509 163.646 250.082 162.545C249.655 161.444 249.668 160.221 250.118 159.129C250.567 158.037 251.42 157.16 252.499 156.679C253.577 156.199 254.798 156.151 255.91 156.546C256.556 156.783 257.128 157.187 257.568 157.715C258.009 158.245 258.301 158.881 258.417 159.56L258.709 161.273L259.372 159.667L259.941 158.29L260.198 158.397L257.539 164.852C257.539 164.853 257.539 164.854 257.538 164.854C257.297 165.429 257.248 165.964 257.422 166.425C257.598 166.89 257.965 167.189 258.367 167.357L258.37 167.358C259.173 167.689 259.983 167.425 260.67 166.82C261.346 166.222 261.963 165.252 262.483 163.986C263.415 161.72 263.385 159.474 262.513 157.545C261.643 155.62 259.955 154.055 257.651 153.104C255.339 152.15 253.014 152.111 251.019 152.905C249.025 153.699 247.4 155.311 246.462 157.586C245.986 158.614 245.731 159.731 245.712 160.864C245.693 162.001 245.913 163.13 246.356 164.177C246.527 164.579 246.729 164.967 246.961 165.335C246.697 164.936 246.473 164.518 246.289 164.085C245.464 162.138 245.444 159.851 246.374 157.543C247.301 155.241 248.928 153.642 250.901 152.856C252.876 152.069 255.236 152.082 257.649 153.078C260.067 154.076 261.739 155.694 262.582 157.596C263.423 159.496 263.455 161.72 262.518 163.974Z" fill="var(--primary)" stroke="var(--primary)"/>
<path d="M154.36 24.8861C152.94 28.3261 150.83 29.8261 148.74 28.9661C148.435 28.8609 148.154 28.6933 147.917 28.474C147.68 28.2548 147.491 27.9886 147.362 27.6924C147.233 27.3962 147.168 27.0764 147.169 26.7534C147.17 26.4304 147.239 26.1112 147.37 25.8161C146.666 26.3545 145.827 26.6896 144.945 26.7848C144.064 26.88 143.173 26.7317 142.37 26.3561C141.044 25.7466 140.006 24.6478 139.472 23.2899C138.938 21.9319 138.95 20.42 139.506 19.0708C140.062 17.7217 141.118 16.6398 142.453 16.0517C143.788 15.4637 145.3 15.4151 146.67 15.9161C147.478 16.2118 148.194 16.7165 148.744 17.3787C149.294 18.041 149.658 18.8371 149.8 19.6861L150.64 17.6861L151.96 18.2261L148.8 25.8961C148.33 27.0361 148.73 27.6761 149.42 27.9561C150.68 28.4761 152.13 27.2461 153.26 24.5161C155.21 19.7561 153.09 15.1861 148.19 13.1661C143.29 11.1461 138.48 13.0561 136.51 17.8561C134.54 22.6561 136.51 27.3961 141.41 29.4161C142.756 29.9684 144.208 30.211 145.66 30.1261L145.6 31.2561C144.019 31.3334 142.441 31.0567 140.98 30.4461C135.42 28.1561 133.18 22.7661 135.39 17.4461C137.6 12.1261 143.03 9.88607 148.62 12.1861C154.21 14.4861 156.54 19.5861 154.36 24.8861ZM148.59 22.7761C148.799 22.2698 148.906 21.7274 148.905 21.1798C148.904 20.6322 148.796 20.0901 148.585 19.5845C148.375 19.0789 148.067 18.6196 147.679 18.233C147.291 17.8463 146.831 17.5399 146.325 17.3311C145.819 17.1223 145.276 17.0152 144.729 17.0161C144.181 17.0169 143.639 17.1256 143.133 17.3359C142.628 17.5462 142.169 17.8541 141.782 18.2419C141.395 18.6297 141.089 19.0898 140.88 19.5961C140.625 20.1096 140.479 20.6701 140.45 21.2426C140.421 21.8151 140.511 22.3875 140.712 22.924C140.914 23.4606 141.224 23.9499 141.623 24.3616C142.022 24.7733 142.501 25.0985 143.031 25.3171C143.561 25.5356 144.13 25.6429 144.703 25.6321C145.277 25.6213 145.841 25.4928 146.363 25.2545C146.884 25.0162 147.351 24.6732 147.734 24.2468C148.117 23.8204 148.409 23.3198 148.59 22.7761Z" fill="var(--text)"/>
<path d="M97.11 131.936C98.23 134.846 97.81 136.936 96.05 137.656C95.8025 137.763 95.5359 137.819 95.2663 137.82C94.9967 137.821 94.7297 137.768 94.4812 137.663C94.2328 137.558 94.008 137.405 93.8205 137.211C93.633 137.017 93.4865 136.788 93.39 136.536C93.2704 137.262 92.9562 137.942 92.4807 138.504C92.0053 139.066 91.3864 139.488 90.69 139.726C89.5283 140.131 88.2547 140.068 87.1384 139.551C86.0221 139.034 85.1504 138.104 84.7077 136.956C84.2649 135.808 84.2858 134.533 84.7658 133.401C85.2458 132.268 86.1474 131.366 87.28 130.886C87.943 130.602 88.6694 130.497 89.3858 130.583C90.1022 130.669 90.7832 130.943 91.36 131.376L90.7 129.646L91.81 129.216L94.31 135.706C94.68 136.706 95.31 136.826 95.88 136.606C96.94 136.196 97.11 134.606 96.22 132.296C94.67 128.296 90.74 126.716 86.6 128.296C82.46 129.876 80.6 133.826 82.2 137.886C82.516 138.826 83.0255 139.69 83.6957 140.421C84.3659 141.153 85.1818 141.735 86.091 142.132C87.0002 142.529 87.9824 142.73 88.9743 142.724C89.9662 142.718 90.9458 142.504 91.85 142.096C92.9872 141.663 94.0125 140.979 94.85 140.096L95.47 140.826C94.5517 141.784 93.4311 142.526 92.19 142.996C87.48 144.816 83.01 142.816 81.26 138.276C79.51 133.736 81.55 129.276 86.26 127.456C90.97 125.636 95.35 127.426 97.11 131.936ZM92.38 133.936C92.0986 133.312 91.6405 132.784 91.0622 132.418C90.484 132.052 89.8111 131.863 89.1267 131.875C88.4424 131.888 87.7766 132.1 87.2119 132.487C86.6471 132.874 86.2082 133.418 85.9493 134.051C85.6905 134.685 85.6231 135.381 85.7555 136.052C85.888 136.724 86.2144 137.342 86.6944 137.829C87.1745 138.317 87.787 138.654 88.4563 138.797C89.1256 138.941 89.8222 138.885 90.46 138.636C90.9031 138.471 91.3072 138.216 91.6466 137.886C91.986 137.557 92.2535 137.161 92.432 136.723C92.6106 136.285 92.6964 135.815 92.684 135.342C92.6716 134.869 92.5613 134.404 92.36 133.976L92.38 133.936Z" fill="var(--secondary)"/>
<path d="M109.835 171.107L82.4032 184.611L91.507 203.104L118.939 189.6L109.835 171.107Z" fill="var(--secondary)"/>
<path d="M109.427 171C109.404 171.126 109.367 171.249 109.316 171.367L108.949 172.403C108.599 173.335 108.112 174.619 107.522 176.205L102.676 188.823L102.636 188.934H102.509L101.568 188.719L87.715 185.77L83.5224 184.853L82.3906 184.582C82.2558 184.564 82.1243 184.526 82 184.471C82.1343 184.477 82.2677 184.495 82.3985 184.526L83.5463 184.734L87.7629 185.531L101.632 188.36L102.573 188.56L102.397 188.647C104.334 183.721 106.064 179.298 107.331 176.069L108.838 172.299C109.013 171.877 109.156 171.502 109.26 171.279C109.308 171.181 109.364 171.088 109.427 171Z" fill="var(--text)"/>
<path d="M91.1027 202.995C91.3537 200.32 91.7395 197.66 92.2584 195.024C92.6501 192.357 93.1822 189.712 93.8526 187.101C93.9642 187.101 93.4381 190.696 92.6888 195.072C92.2935 197.738 91.7641 200.382 91.1027 202.995Z" fill="var(--text)"/>
<path d="M105.187 181.602C107.512 182.732 109.774 183.988 111.962 185.364C114.226 186.618 116.419 187.996 118.53 189.493C116.208 188.353 113.947 187.095 111.755 185.722C109.495 184.464 107.303 183.089 105.187 181.602Z" fill="var(--text)"/>
<path d="M223.878 61.8521L223.36 100.339L280.455 101.106L280.972 62.6195L223.878 61.8521Z" fill="var(--secondary)"/>
<path d="M281 62.6362C280.851 62.826 280.684 63.0002 280.5 63.1562L279 64.5662L273.41 69.6862L254.66 86.5762L254.49 86.7262L254.3 86.5862L252.9 85.4562L232.32 68.8662L226.11 63.7862L224.44 62.3862C224.234 62.2352 224.046 62.0606 223.88 61.8662C224.1 61.9943 224.311 62.138 224.51 62.2962L226.24 63.6162L232.55 68.5562L253.23 85.0262L254.63 86.1462H254.27L273.11 69.4262L278.82 64.4262L280.39 63.0962C280.576 62.9214 280.781 62.7672 281 62.6362Z" fill="var(--text)"/>
<path d="M223.38 100.356C223.28 100.256 227.77 95.0761 233.43 88.7761C239.09 82.4761 243.75 77.4561 243.86 77.5461C243.97 77.6361 239.47 82.8261 233.86 89.1261C228.25 95.4261 223.49 100.426 223.38 100.356Z" fill="var(--text)"/>
<path d="M280.48 101.126C280.198 100.891 279.946 100.622 279.73 100.326C279.28 99.786 278.63 98.996 277.85 98.016C276.28 96.016 274.13 93.346 271.79 90.316C269.45 87.286 267.36 84.526 265.85 82.506C265.16 81.506 264.58 80.756 264.09 80.096C263.859 79.8033 263.658 79.4885 263.49 79.156C263.49 79.156 263.78 79.406 264.23 79.946L266.11 82.236C267.68 84.236 269.83 86.926 272.18 89.966C274.53 93.006 276.63 95.766 278.13 97.786C278.88 98.786 279.48 99.626 279.89 100.196C280.123 100.481 280.321 100.793 280.48 101.126Z" fill="var(--text)"/>
<path d="M200.509 158.746L143.628 154.36L146.56 116.342L203.441 120.729L200.509 158.746Z" fill="var(--primary)" stroke="var(--primary)"/>
<path d="M203.98 120.266C203.823 120.453 203.645 120.62 203.45 120.766L201.83 122.096L195.83 126.936L175.72 142.856L175.53 143.006L175.36 142.846L174.01 141.616L154.2 123.426L148.2 117.866L146.6 116.336C146.404 116.169 146.226 115.981 146.07 115.776C146.286 115.919 146.49 116.08 146.68 116.256L148.35 117.706L154.43 123.126L174.35 141.126L175.7 142.356H175.33L195.55 126.576L201.66 121.876L203.34 120.626C203.543 120.488 203.757 120.368 203.98 120.266Z" fill="var(--text)"/>
<path d="M143.11 155.126C143 155.026 147.81 149.916 153.84 143.716C159.87 137.516 164.84 132.576 164.95 132.716C165.06 132.856 160.25 137.916 154.21 144.126C148.17 150.336 143.24 155.226 143.11 155.126Z" fill="var(--text)"/>
<path d="M200.97 159.276C200.695 159.021 200.45 158.736 200.24 158.426L198.4 155.976C196.86 153.896 194.77 150.976 192.49 147.796C190.21 144.616 188.15 141.656 186.69 139.526C186.02 138.526 185.44 137.666 184.97 136.966C184.742 136.656 184.551 136.32 184.4 135.966C184.672 136.217 184.913 136.499 185.12 136.806L186.96 139.256C188.5 141.326 190.59 144.256 192.89 147.446C195.19 150.636 197.23 153.606 198.69 155.736L200.41 158.286C200.636 158.592 200.824 158.925 200.97 159.276Z" fill="var(--text)"/>
<path d="M104.377 93.9482L94.1105 71.307L128.136 55.8789L138.402 78.5201L104.377 93.9482Z" fill="var(--primary)" stroke="var(--primary)"/>
<path d="M128.385 55.217C128.343 55.372 128.291 55.524 128.229 55.672L127.731 56.9957L125.784 61.7104L119.217 77.3262L119.153 77.476L119.002 77.4345L117.786 77.1735L100.493 72.9366L95.2754 71.6242L93.8622 71.2438C93.6945 71.2126 93.5312 71.1613 93.3757 71.0911C93.5438 71.1039 93.7105 71.1312 93.8739 71.1726L95.3078 71.4777L100.556 72.6884L117.796 76.8068L119.012 77.0678L118.784 77.1711L125.467 61.591L127.51 56.9202L128.045 55.6784C128.137 55.51 128.251 55.3548 128.385 55.217Z" fill="var(--text)"/>
<path d="M104.128 94.61C104.541 91.2574 105.132 87.929 105.898 84.639C106.501 81.3256 107.271 78.0449 108.205 74.8092C107.791 78.1618 107.2 81.4901 106.434 84.7802C105.831 88.0935 105.062 91.3743 104.128 94.61Z" fill="var(--text)"/>
<path d="M122.642 68.3401C125.512 69.8564 128.299 71.5249 130.991 73.3383C133.778 75.0014 136.473 76.8143 139.064 78.7691C136.194 77.2527 133.407 75.5843 130.715 73.7709C127.932 72.1008 125.237 70.2881 122.642 68.3401Z" fill="var(--text)"/>
<path d="M79.4818 13.0298L45.0659 29.9719L56.4873 53.173L90.9032 36.2309L79.4818 13.0298Z" fill="var(--secondary)"/>
<path d="M78.97 12.896C78.941 13.0542 78.8941 13.2085 78.83 13.356L78.3701 14.656C77.9301 15.826 77.32 17.436 76.58 19.426L70.5001 35.256L70.45 35.396H70.29L69.11 35.126L51.73 31.426L46.47 30.276L45.05 29.936C44.881 29.9125 44.716 29.8654 44.5601 29.796C44.7285 29.8037 44.8959 29.8272 45.0601 29.866L46.5001 30.126L51.79 31.126L69.19 34.676L70.3701 34.926L70.1501 35.036C72.5801 28.856 74.7501 23.306 76.3401 19.256L78.23 14.526C78.45 13.996 78.63 13.526 78.76 13.246C78.8199 13.1236 78.8902 13.0065 78.97 12.896Z" fill="var(--text)"/>
<path d="M55.98 53.0362C56.2949 49.6806 56.7789 46.343 57.43 43.0362C57.9213 39.69 58.5889 36.372 59.43 33.0962C59.57 33.0962 58.91 37.6062 57.97 43.0962C57.474 46.4409 56.8099 49.7584 55.98 53.0362Z" fill="var(--text)"/>
<path d="M73.65 26.196C76.5666 27.6145 79.4042 29.1901 82.15 30.916C84.99 32.4896 87.7409 34.2189 90.39 36.096C87.4771 34.6669 84.64 33.0881 81.89 31.366C79.0549 29.7878 76.3045 28.0621 73.65 26.196Z" fill="var(--text)"/>
<path d="M201.39 25.6061V0.746094H238.75V25.6061H201.39Z" fill="var(--primary)" stroke="var(--primary)"/>
<path d="M239.25 0.246094C239.148 0.370088 239.038 0.487021 238.92 0.596092L237.92 1.59609L234.2 5.0861L221.77 16.5961L221.65 16.7061L221.53 16.6061L220.53 15.8661L206.53 4.8661L202.32 1.51609L201.19 0.586098C201.05 0.488389 200.923 0.374234 200.81 0.246094C200.958 0.327171 201.098 0.420851 201.23 0.526093L202.41 1.3961L206.69 4.66609L220.69 15.5361L221.69 16.2761H221.44L233.96 4.84609L237.75 1.4361L238.75 0.526093C238.903 0.410663 239.072 0.316478 239.25 0.246094Z" fill="var(--text)"/>
<path d="M200.89 26.1061C202.651 23.2235 204.564 20.4362 206.62 17.7561C208.537 14.9874 210.593 12.3173 212.78 9.7561C211.019 12.6387 209.106 15.426 207.05 18.1061C205.133 20.8748 203.077 23.5449 200.89 26.1061Z" fill="var(--text)"/>
<path d="M228.6 9.82617C230.588 12.3924 232.437 15.0628 234.14 17.8262C235.992 20.4919 237.698 23.2559 239.25 26.1062C237.262 23.54 235.413 20.8695 233.71 18.1062C231.865 15.436 230.16 12.6723 228.6 9.82617Z" fill="var(--text)"/>
<path d="M8.60515 105.754L0.290771 138.113L48.3013 150.449L56.6157 118.09L8.60515 105.754Z" fill="var(--secondary)"/>
<path d="M56.6 118.086C56.4384 118.214 56.2642 118.324 56.08 118.416L54.52 119.306L48.76 122.476L29.49 132.886L29.31 132.986L29.18 132.816L28.23 131.586L14.23 113.376L10.11 107.826L8.98999 106.306C8.85371 106.128 8.73008 105.941 8.62 105.746C8.78927 105.894 8.94031 106.062 9.06998 106.246L10.26 107.716L14.57 113.166L28.64 131.296L29.64 132.526L29.33 132.456L48.67 122.186L54.51 119.186L56.1 118.386C56.2546 118.267 56.4223 118.167 56.6 118.086Z" fill="var(--text)"/>
<path d="M0.280031 138.106C0.190031 137.996 4.63 134.176 10.19 129.566C15.75 124.956 20.34 121.306 20.43 121.416C20.52 121.526 16.09 125.356 10.52 129.966C4.95002 134.576 0.370031 138.216 0.280031 138.106Z" fill="var(--text)"/>
<path d="M40.1901 126.646C40.3301 126.646 42.2501 131.896 44.4901 138.466C46.7301 145.036 48.4201 150.396 48.2901 150.466C48.1601 150.536 46.2301 145.216 43.9901 138.646C41.7501 132.076 40.1101 126.696 40.1901 126.646Z" fill="var(--text)"/>
</svg>
