<?xml version="1.0" standalone="no"?>
<!DOCTYPE svg PUBLIC "-//W3C//DTD SVG 20010904//EN"
 "http://www.w3.org/TR/2001/REC-SVG-20010904/DTD/svg10.dtd">
<svg version="1.0" xmlns="http://www.w3.org/2000/svg"
 width="64.000000pt" height="64.000000pt" viewBox="0 0 64.000000 64.000000"
 preserveAspectRatio="xMidYMid meet">

<g transform="translate(0.000000,64.000000) scale(0.100000,-0.100000)"
fill="#000000" stroke="none">
<path d="M205 546 c-15 -22 -13 -31 30 -146 25 -68 45 -125 45 -126 0 -1 -10
-4 -21 -6 -12 -2 -27 -10 -32 -19 -24 -38 57 -170 125 -205 40 -21 50 -7 13
20 -70 50 -125 136 -111 173 7 16 10 15 32 -10 13 -15 24 -34 24 -41 0 -8 6
-19 14 -25 25 -21 27 5 5 61 -75 190 -110 300 -99 313 21 26 38 4 75 -98 55
-154 57 -158 69 -154 6 2 9 13 7 23 -9 41 -5 58 12 62 12 3 23 -9 37 -44 15
-34 24 -44 32 -36 7 7 7 19 0 42 -9 25 -8 32 3 36 24 10 38 -1 50 -36 14 -43
33 -50 37 -14 2 15 9 29 15 32 21 6 33 -44 33 -139 0 -68 3 -90 13 -86 21 7
16 196 -6 230 -18 27 -50 36 -62 16 -5 -6 -13 -3 -22 10 -15 23 -62 28 -80 10
-8 -8 -13 -8 -17 0 -9 14 -49 14 -62 1 -7 -7 -19 15 -39 70 -15 45 -34 88 -42
96 -22 22 -60 17 -78 -10z"/>
<path d="M80 464 c-7 -18 -10 -82 -8 -165 l3 -136 -23 15 c-12 8 -26 11 -30 7
-8 -8 57 -65 75 -65 15 0 69 78 59 87 -3 3 -17 -4 -30 -16 l-24 -23 -7 86 c-4
47 -3 115 3 153 11 73 0 106 -18 57z"/>
</g>
</svg>
