<svg width="229" height="120" viewBox="0 0 229 120" fill="none" xmlns="http://www.w3.org/2000/svg">
    <path d="M226.19 98.3068C225.915 94.1198 220.493 92.0875 211.835 90.1654C209.866 89.7285 207.906 89.3454 206.191 89.0319C206.152 87.091 205.391 85.6308 204.584 84.6227C203.552 83.332 202.065 82.3019 200.23 81.5821C201.048 76.3857 200.103 67.4065 192.298 52.795C187.831 44.424 180.887 38.8463 171.659 36.2172C167.798 35.1166 163.563 34.5587 159.071 34.5587C149.369 34.5587 139.981 37.1843 134.436 39.6394C133.336 40.1256 132.442 40.372 131.78 40.372C131.147 40.372 130.497 40.1513 129.307 39.7284C127.607 39.1244 125.28 38.2976 122.163 38.2976C120.438 38.2976 118.697 38.5429 116.842 39.0467C115.767 39.3384 114.85 39.4861 114.115 39.4861C113.235 39.4861 112.729 39.2913 111.668 38.8507C110.533 38.3787 108.817 37.6659 106.607 37.6659C106.053 37.6659 105.498 37.7108 104.944 37.7999C106.776 36.8908 107.864 35.1284 107.524 33.2766C107.118 31.0669 104.862 29.4632 102.161 29.4632C101.944 29.4632 101.725 29.4741 101.51 29.4955C101.609 29.0389 101.618 28.5689 101.541 28.1019H106.739C109.731 28.1019 112.165 26.089 112.165 23.6144C112.165 21.5074 110.401 19.7354 108.029 19.2551C108.035 18.8631 107.978 18.4652 107.856 18.071C107.838 18.0142 107.815 17.9596 107.795 17.9038L113.952 19.0099C114.332 19.0785 114.721 19.1134 115.11 19.1134C117.643 19.1134 119.873 17.6271 120.411 15.5794C120.719 14.4081 120.457 13.2076 119.673 12.1992C118.997 11.3291 118.002 10.6918 116.831 10.3699C118.232 9.33194 118.905 7.74381 118.515 6.14579C118.011 4.08149 115.881 2.60193 113.335 2.54812L101.75 2.30129L101.636 2.30029C98.657 2.30029 96.2629 4.21996 96.1859 6.67204C96.1659 7.31924 96.3133 7.93856 96.596 8.50159C95.245 9.44426 94.5106 10.8935 94.7035 12.4002C94.7948 13.1157 95.0877 13.7817 95.536 14.3583L91.3425 14.1578C91.2655 14.1551 91.1882 14.1539 91.1115 14.1539C88.2317 14.1539 85.8463 16.0111 85.6806 18.3817C85.5489 20.2658 86.8508 21.9503 88.8024 22.7063C88.6356 23.3671 88.6535 24.062 88.8657 24.7393L85.5842 24.9814C84.1397 25.0876 82.8322 25.6528 81.9017 26.5728C80.9718 27.4925 80.5306 28.6563 80.6596 29.8503C80.7826 30.9889 81.3999 31.9911 82.3286 32.718C80.6575 34.0315 80.1652 36.116 81.1396 37.8567C82.0244 39.4381 83.9576 40.4601 86.0645 40.4601C86.3415 40.4601 86.6206 40.4423 86.8803 40.409L102.649 38.4276C102.495 38.4871 102.341 38.5481 102.188 38.6145L102.074 38.6641L101.773 38.8139L101.666 38.8749C99.426 40.1444 97.3032 41.5629 95.3187 43.1141C92.9715 41.7575 90.495 41.7574 89.4075 41.7574C89.0075 41.7574 88.606 41.7678 88.2036 41.7792C87.8806 41.7883 87.5555 41.7979 87.2278 41.7979C86.14 41.7979 85.6779 41.6881 85.0782 41.2867L85.0304 41.2551C80.4369 38.2662 74.6484 36.4571 68.1659 35.9674C66.1049 33.0649 62.9317 30.0406 58.3107 29.0068C57.2534 28.7698 56.1605 28.6499 55.0626 28.6499C51.9825 28.6499 48.8547 29.5783 45.7711 31.4068C37.4936 36.3026 37.073 41.7231 37.9276 45.107C35.6613 47.505 33.741 49.8715 32.195 52.1722C27.491 53.9171 22.7022 57.2302 17.9352 62.0418C15.0259 64.9784 12.7623 67.8274 11.3772 69.6982C6.33171 70.7504 3.99584 74.6307 3.71195 75.134L3 76.3949L3.32299 77.7604C3.5824 78.8586 6.26962 88.7718 20.4759 98.5826C20.7505 98.7726 21.0314 98.9597 21.3177 99.1438L13.9152 104.155C12.036 105.426 11.4823 107.642 12.5987 109.426C13.4901 110.849 15.248 111.734 17.1863 111.734C17.6445 111.734 18.1018 111.683 18.5627 111.579L35.2858 107.756L39.3927 109.763C39.893 109.895 40.4181 109.964 40.9495 109.964C41.7984 109.964 42.6426 109.789 43.391 109.457L48.8007 107.058C50.1064 107.681 51.4691 108.083 52.5966 108.338C54.1868 108.698 55.9205 108.896 57.4785 108.896C57.8089 108.896 58.1322 108.888 58.4475 108.87C59.6382 109.513 61.0496 109.892 62.5708 109.955C62.7213 109.961 62.8711 109.964 63.021 109.964C64.2115 109.964 65.3837 109.772 66.4751 109.411C66.9294 109.558 67.3599 109.652 67.7429 109.711C68.1671 109.776 68.6014 109.809 69.034 109.809C69.482 109.809 69.9274 109.775 70.3716 109.706C69.9471 110.354 69.6172 111.008 69.3808 111.667C69.1805 112.227 69.1277 112.801 69.2038 113.359L72.6308 116.91C73.1752 117.067 73.7508 117.152 74.335 117.152C75.1344 117.152 75.9341 116.996 76.6374 116.704L97.1516 108.258C97.6498 108.264 98.1418 108.267 98.6224 108.267C102.335 108.267 105.651 108.086 108.541 107.727C108.547 109.125 108.332 110.261 107.897 110.989C106.942 112.588 107.314 114.505 108.74 115.78L113.439 117.085C114.327 116.953 115.165 116.631 115.863 116.145C116.355 115.801 119.917 113.223 122.225 109.094C127.677 109.964 135.318 110.39 145.386 110.39C147.263 110.39 149.237 110.373 151.278 110.342C152.064 111.44 152.449 112.426 152.337 113.121C152.014 115.128 153.422 117.019 155.709 117.699L160.402 117.197C161.095 116.799 161.673 116.26 162.071 115.608C162.429 115.02 163.727 112.747 164.186 109.971C165.062 109.936 165.939 109.898 166.815 109.858C173.901 109.537 181.387 109.069 188.528 108.502C195.735 110.518 201.251 112.709 203.74 114.554C204.689 115.257 205.913 115.644 207.188 115.644C208.522 115.644 209.789 115.224 210.753 114.464C212.691 112.936 212.885 110.393 211.196 108.676C211.001 108.478 210.142 107.618 208.816 106.464C212.543 105.98 216.074 105.427 218.489 104.838C223.799 103.547 226.39 101.349 226.19 98.3056L226.19 98.3068Z" fill="#F7F7F7" stroke="#191919" stroke-width="4.407" stroke-miterlimit="10"/>
    <path d="M44.2968 102.282L43.0469 104.03L46.6323 102.44C45.8425 102.399 45.0639 102.346 44.2968 102.282Z" fill="var(--secondary)"/>
    <path d="M39.4546 101.701C36.1387 101.171 33.0935 100.394 30.3538 99.3838L20.5449 106.023L39.4546 101.701Z" fill="var(--secondary)"/>
    <path d="M92.9111 104.511C90.9862 104.425 89.2217 104.309 87.7417 104.193C86.6548 104.655 85.4515 105.196 84.2273 105.8C80.2624 107.759 77.4821 109.685 76.0391 111.457L92.9111 104.511Z" fill="var(--secondary)"/>
    <path d="M117.909 104.316C117.477 104.16 117.079 103.997 116.73 103.822C115.932 103.425 115.352 102.977 114.995 102.483C114.656 102.621 114.292 102.75 113.916 102.875C114.355 104.852 114.772 107.773 114.249 110.41C115.614 108.988 117.222 106.871 117.909 104.316Z" fill="var(--secondary)"/>
    <path d="M157.935 110.734C158.344 109.454 158.604 107.908 158.187 106.557C157.292 106.584 156.381 106.609 155.459 106.632C156.453 107.79 157.424 109.205 157.935 110.734Z" fill="var(--secondary)"/>
    <path d="M196.183 104.194C195.062 104.3 193.917 104.404 192.75 104.506C195.592 105.357 198.898 106.458 201.876 107.734C200.207 106.475 198.23 105.165 196.183 104.194Z" fill="var(--secondary)"/>
    <path d="M48.466 101.226C48.4648 101.216 48.4663 101.205 48.4651 101.195C48.4511 101.069 48.4466 100.942 48.4556 100.813C48.4565 100.8 48.4589 100.787 48.4601 100.774C48.4717 100.641 48.4935 100.508 48.5296 100.373C48.5299 100.372 48.5299 100.371 48.5302 100.369C48.5302 100.369 48.5305 100.368 48.5308 100.368V100.367C48.5323 100.362 48.5356 100.355 48.5371 100.349C48.5627 100.255 48.5968 100.153 48.6416 100.042C48.6654 99.9821 48.6986 99.915 48.7278 99.851C48.7565 99.7878 48.7822 99.7274 48.8162 99.6602C48.8538 99.5857 48.8998 99.5047 48.9436 99.4255C48.9798 99.3604 49.0132 99.2971 49.0535 99.229C49.1031 99.1448 49.1598 99.0563 49.2156 98.9676C49.2607 98.8963 49.3043 98.8262 49.3532 98.7521C49.4132 98.6615 49.4789 98.5677 49.5449 98.4734C49.6001 98.3947 49.6547 98.3165 49.7141 98.2353C49.7837 98.14 49.8577 98.0427 49.9326 97.9445C49.9986 97.8586 50.0649 97.7724 50.135 97.6843C50.2132 97.5855 50.2947 97.4861 50.378 97.3851C50.455 97.2923 50.5335 97.199 50.6147 97.1045C50.701 97.004 50.7891 96.9031 50.8801 96.8009C50.9685 96.7017 51.0598 96.6017 51.1526 96.501C51.2458 96.4 51.3395 96.2993 51.4374 96.1969C51.538 96.0915 51.6428 95.9856 51.7482 95.8789C51.8476 95.7787 51.9461 95.6787 52.0497 95.5778C52.1634 95.4667 52.2822 95.3554 52.4007 95.2438C52.5046 95.1461 52.6067 95.0488 52.7145 94.9508C52.844 94.8328 52.9793 94.7154 53.1139 94.5974C53.2196 94.5051 53.3222 94.4127 53.4312 94.3204C53.5849 94.1901 53.7458 94.0605 53.9058 93.9307C54.0032 93.8517 54.0972 93.7725 54.1966 93.694C54.4267 93.5125 54.665 93.3328 54.9074 93.1544C54.9426 93.1285 54.9757 93.1018 55.0112 93.0759C55.2906 92.8722 55.5781 92.6713 55.8727 92.4738C55.962 92.4138 56.0557 92.3563 56.1465 92.2971C56.3336 92.1746 56.519 92.0512 56.7122 91.932C50.1216 89.3434 44.763 86.4349 40.7005 83.2542C40.6694 83.23 40.639 83.2056 40.6079 83.1812C40.2835 82.9254 39.9673 82.668 39.6593 82.4088C39.6405 82.3928 39.6202 82.3774 39.6014 82.3616C38.4742 81.94 28.7387 78.4313 17.1904 78.4478H17.1877C16.7573 78.4481 16.408 78.16 16.4065 77.8041C16.4053 77.4471 16.7537 77.1571 17.1854 77.1561C17.2376 77.1559 17.2919 77.1559 17.3442 77.1559C25.8718 77.1559 33.2782 78.9741 37.267 80.1853C37.2162 80.133 37.1688 80.0796 37.1186 80.0271C35.1559 79.1481 32.637 78.0602 30.6448 77.3355L30.6164 77.3252C28.8319 76.8643 25.3966 76.4618 25.3619 76.4578C24.9345 76.4079 24.6369 76.0814 24.6972 75.7279C24.7575 75.3744 25.1554 75.1305 25.5796 75.1779C25.707 75.1927 28.354 75.5033 30.2919 75.9093C30.3206 74.2405 30.8827 72.7417 31.9681 71.4357C31.8854 71.1353 31.8128 70.8332 31.7481 70.5298C31.7266 70.4296 31.7104 70.3283 31.691 70.2279C31.6513 70.024 31.6122 69.8201 31.5806 69.6152C31.5618 69.4943 31.5483 69.3726 31.5322 69.2511C31.5078 69.0643 31.4836 68.8777 31.4654 68.6898C31.4528 68.561 31.4448 68.4314 31.4352 68.3018C31.4221 68.1201 31.4101 67.9382 31.403 67.7553C31.3976 67.622 31.3955 67.4882 31.3934 67.3542C31.3907 67.1732 31.3901 66.9921 31.3934 66.8104C31.3958 66.6754 31.4 66.5399 31.4054 66.4044C31.4128 66.2217 31.4239 66.0385 31.4373 65.8549C31.4472 65.7196 31.4576 65.5844 31.4707 65.4486C31.4886 65.2615 31.5113 65.0737 31.5352 64.8856C31.5522 64.7528 31.5683 64.6202 31.5883 64.4872C31.6176 64.2914 31.6528 64.0949 31.6886 63.8985C31.7116 63.7718 31.7328 63.6455 31.7585 63.5184C31.8021 63.3039 31.8528 63.0886 31.9039 62.8731C31.9301 62.7633 31.9528 62.654 31.9809 62.5439C32.0525 62.263 32.1325 61.9808 32.2173 61.6982C32.231 61.6525 32.2418 61.6074 32.2558 61.5617C32.357 61.2317 32.4675 60.9006 32.5863 60.5684C32.6185 60.4785 32.6555 60.388 32.689 60.2981C32.7788 60.0565 32.8699 59.8146 32.9687 59.5717C33.0185 59.4493 33.0735 59.3264 33.1257 59.2037C33.2158 58.9921 33.3063 58.7805 33.4036 58.568C33.4654 58.433 33.5311 58.2975 33.5959 58.1623C33.6917 57.9609 33.789 57.7594 33.8911 57.5575C33.9627 57.416 34.0377 57.2741 34.112 57.1322C34.1732 57.0159 34.2296 56.9004 34.2929 56.7842C24.075 60.7918 15.2874 73.8996 15.1949 74.0393L14.9486 74.4103L14.439 74.372C11.3909 74.1405 9.67295 76.3507 9.2207 77.0275C9.64668 78.438 12.5638 86.7112 24.2924 94.8106C29.9486 98.722 38.2903 100.933 48.4657 101.227L48.466 101.226ZM26.342 93.1294C26.5488 92.8164 27.0232 92.7014 27.402 92.8717C27.5259 92.928 39.8909 98.4379 48.195 96.5175C48.6099 96.4222 49.0413 96.6224 49.1577 96.9658C49.2741 97.3091 49.0311 97.6658 48.6156 97.7618C47.2935 98.0674 45.837 98.2204 44.254 98.2204C41.3262 98.2204 37.9634 97.6984 34.2 96.6575C29.9286 95.4761 26.785 94.0654 26.6533 94.0059C26.2745 93.8354 26.1351 93.4429 26.3417 93.1297L26.342 93.1294Z" fill="var(--primary)"/>
    <path d="M81.344 45.1149C76.0048 41.6409 69.6253 40.8253 65.2153 40.7537C55.5157 40.5852 47.1084 43.6402 44.1098 46.6038L44.068 46.642C40.8748 49.823 38.3494 52.9216 36.5619 55.8523C33.6448 60.6081 32.489 65.142 33.1137 69.3594C33.203 69.9619 33.3284 70.5581 33.4905 71.1473C34.3093 74.0827 36.0407 76.9067 38.6368 79.5387C43.4889 84.473 50.8661 88.2617 58.2158 91.0772C67.6557 86.0839 75.532 89.4098 80.147 92.6552C79.295 85.6586 79.5855 69.592 88.8108 55.9525C88.8967 55.8249 88.9908 55.7012 89.0782 55.5743C89.2776 55.2845 89.4821 54.9963 89.6899 54.7092C89.8412 54.5006 89.9929 54.2925 90.1481 54.0861C90.426 53.7156 90.7126 53.3486 91.0045 52.9833C91.0962 52.8692 91.1866 52.7552 91.2795 52.6419C91.6398 52.2006 92.0117 51.7642 92.3938 51.3319C92.4323 51.2882 92.4708 51.2443 92.5096 51.2006C92.9108 50.7501 93.3246 50.3054 93.7503 49.8657C93.7759 49.8391 93.7998 49.8112 93.8255 49.7845C92.6294 46.5788 90.9332 46.6268 88.4054 46.6946C86.3946 46.7507 83.8898 46.8183 81.3446 45.1146L81.344 45.1149ZM57.8101 56.7031C63.5028 50.9627 79.7404 50.7519 75.9412 57.3373C72.142 63.9226 70.4304 66.7818 66.5157 65.2405C62.6009 63.699 54.3685 60.1734 57.8101 56.7031ZM59.817 84.4945C56.4587 83.1562 44.9364 73.1704 53.7584 73.0243C62.5804 72.8784 64.5723 73.1607 64.6622 76.7453C64.752 80.3299 64.7064 86.4431 59.817 84.4945ZM68.9533 83.7552C68.653 85.3819 67.6685 86.6067 66.7542 86.4914C65.8398 86.3759 65.3419 84.964 65.6419 83.3376C65.9422 81.7112 66.9267 80.4861 67.8411 80.6017C68.7554 80.7169 69.2533 82.1288 68.9533 83.7552ZM78.644 73.9573C77.8962 74.4611 76.9938 74.6761 76.1165 74.7366C76.846 75.3606 77.269 76.05 77.3807 76.8013C77.7258 79.1224 74.8818 81.0201 74.7606 81.0998C74.617 81.1941 74.4454 81.24 74.2749 81.24C74.0451 81.24 73.817 81.156 73.6627 80.9956C73.3946 80.7167 73.4504 80.3108 73.7872 80.0887C73.8101 80.0734 76.0708 78.5561 75.8287 76.9554C75.6893 76.0332 74.712 75.1999 72.9427 74.4724C72.2767 75.1539 71.0199 75.6059 70.2519 75.3749C69.3068 75.0905 68.7676 73.8 69.1811 72.8603C69.5945 71.9206 70.6396 70.876 71.5847 71.1604C72.2919 71.3731 73.1298 72.3143 73.334 73.1684C74.0215 73.3454 76.3383 73.8472 77.6592 72.9539C78.6079 72.3123 78.9058 71.0162 78.5446 69.102C78.478 68.7497 78.7697 68.4192 79.1959 68.3639C79.6222 68.3091 80.0219 68.5498 80.0885 68.9028C80.5419 71.3048 80.0556 73.0055 78.6437 73.9573H78.644ZM80.1434 60.8384C79.3613 62.3512 78.038 63.3339 77.1872 63.0333C76.3368 62.7326 76.2812 61.2627 77.063 59.7496C77.8451 58.2367 79.1685 57.254 80.0192 57.5547C80.8697 57.8553 80.9255 59.3255 80.1434 60.8384Z" fill="#F7F7F7"/>
    <path d="M220.252 98.5733C220.242 98.4233 219.879 97.0432 210.302 94.917C205.189 93.7817 200.028 93.0116 199.976 93.0042L199.011 92.8611L199.395 92.1154C200.448 90.0694 200.525 88.4607 199.624 87.3344C198.04 85.3535 193.843 85.3306 193.801 85.3306H192.368L193.144 84.3348C193.374 84.0396 198.645 76.8475 186.857 54.7795C183.085 47.7124 177.321 43.0313 169.722 40.8663C157.495 37.3827 143.551 41.1823 137.239 43.9765C132.317 46.1514 129.593 45.1825 126.959 44.2468C124.685 43.4386 122.538 42.6756 118.697 43.7192C113.522 45.124 110.907 44.0384 108.998 43.2451C107.52 42.631 106.623 42.2597 104.99 42.9541C101.364 45.0142 98.1018 47.4978 95.2958 50.3367C80.5065 65.2736 80.6775 87.2552 81.9301 94.054C81.9961 94.1276 82.0564 94.2028 82.1203 94.2769C82.1904 94.3584 82.2617 94.4394 82.3289 94.5218C82.4062 94.6168 82.4785 94.7134 82.5519 94.8096C82.6125 94.8889 82.6752 94.9673 82.7331 95.0475C82.8065 95.149 82.8743 95.2519 82.9436 95.3543C82.9955 95.4314 83.0498 95.5074 83.0991 95.5851C83.1674 95.6923 83.2298 95.8009 83.2937 95.9092C83.3379 95.9843 83.3847 96.0586 83.4268 96.1341C83.4892 96.2469 83.5456 96.361 83.6033 96.475C83.6403 96.5481 83.6803 96.6204 83.7152 96.6942C83.7725 96.8147 83.823 96.9368 83.8749 97.0588C83.9042 97.1274 83.9364 97.195 83.9639 97.2639C84.0176 97.3989 84.0642 97.5357 84.1113 97.6722C84.131 97.7292 84.154 97.7857 84.1725 97.8432C84.2355 98.0377 84.2916 98.234 84.3409 98.4314C84.3922 98.6348 84.4325 98.8325 84.4681 99.0275C84.4779 99.0819 84.4866 99.1352 84.4952 99.1888C84.5206 99.3438 84.5415 99.4956 84.5579 99.6444C84.5621 99.6824 84.5678 99.7214 84.5714 99.7592C84.5887 99.9391 84.6 100.114 84.6066 100.284C84.6081 100.325 84.6081 100.364 84.609 100.405C84.6119 100.539 84.6123 100.67 84.6093 100.797C84.6084 100.84 84.6078 100.883 84.6063 100.925C84.6003 101.08 84.5919 101.23 84.5788 101.372C84.5776 101.386 84.5758 101.399 84.5743 101.413C84.5618 101.544 84.5466 101.668 84.5296 101.788C84.5242 101.825 84.5188 101.86 84.5134 101.896C84.4967 102.002 84.4791 102.104 84.4603 102.2C84.4567 102.219 84.4534 102.239 84.4496 102.257C84.4266 102.369 84.403 102.473 84.3788 102.57C84.377 102.577 84.3755 102.585 84.3737 102.592C88.6404 103.03 107.346 104.69 114.998 101.019L115.939 100.567L116.156 101.449C116.264 101.888 116.727 102.314 117.534 102.716C121.568 104.724 132.381 105.49 145.522 105.49C171.763 105.491 207.306 102.438 216.811 100.122C220.258 99.2838 220.253 98.6032 220.252 98.5746L220.252 98.5733ZM115.021 76.1719C116.534 69.0393 121.363 59.3904 135.777 53.9294C136.169 53.7818 136.632 53.923 136.812 54.2478C136.992 54.5722 136.82 54.9558 136.427 55.1044C125.369 59.2942 118.687 66.4431 116.569 76.3514C114.979 83.7911 116.7 90.0822 116.718 90.1448C116.815 90.4921 116.554 90.8397 116.134 90.9204C116.074 90.9318 116.014 90.9369 115.956 90.9369C115.601 90.9369 115.28 90.7358 115.196 90.4376C115.121 90.1728 113.389 83.8636 115.021 76.1719ZM104.94 62.5433C105.102 62.2126 105.557 62.0521 105.957 62.1878C106.357 62.3221 106.55 62.6988 106.387 63.0291C102.734 70.468 106.18 79.909 106.215 80.0036C106.342 80.3442 106.11 80.7061 105.698 80.811C105.621 80.8307 105.544 80.8401 105.468 80.8401C105.134 80.8401 104.825 80.6616 104.721 80.3839C104.571 79.9804 101.079 70.4044 104.94 62.5433ZM111.039 94.0269C110.935 94.0659 110.825 94.0841 110.718 94.0841C110.421 94.0841 110.136 93.943 110.006 93.7043C109.948 93.6001 104.169 83.3642 89.7682 83.3642C89.6762 83.3642 89.5861 83.3645 89.4936 83.3653H89.4849C89.0574 83.3653 88.7084 83.0809 88.7037 82.7264C88.6989 82.3695 89.0449 82.0772 89.4765 82.0735C89.5739 82.0725 89.6738 82.0721 89.7703 82.0721C105.204 82.0721 111.369 93.0612 111.43 93.1731C111.607 93.4977 111.432 93.8798 111.039 94.0269ZM160.097 46.782C129.301 57.769 119.563 82.6608 119.468 82.9111C119.364 83.1873 119.055 83.3642 118.723 83.3642C118.646 83.3642 118.567 83.3547 118.489 83.3344C118.078 83.2278 117.848 82.8657 117.977 82.5253C118.076 82.2631 120.473 76.0236 126.793 68.3065C132.625 61.1847 143.029 51.4638 159.477 45.5957C159.874 45.4545 160.333 45.6061 160.504 45.9329C160.675 46.2604 160.493 46.6409 160.097 46.782ZM165.62 97.8519C165.229 97.8519 164.891 97.6092 164.845 97.2799C164.795 96.9255 165.102 96.6051 165.531 96.5639C165.715 96.5461 184.055 94.737 190.254 89.8247C190.566 89.5776 191.06 89.5865 191.358 89.8442C191.657 90.1017 191.646 90.5107 191.335 90.7575C184.757 95.97 166.485 97.7734 165.711 97.8472C165.68 97.8504 165.65 97.8519 165.62 97.8519ZM171.632 99.1598C171.201 99.1524 170.858 98.8575 170.867 98.5008C170.876 98.1441 171.236 97.8748 171.664 97.8679C171.802 97.8706 185.463 98.0674 190.36 95.3603C190.719 95.1621 191.204 95.2416 191.444 95.5385C191.684 95.8352 191.588 96.2363 191.229 96.4348C186.64 98.9713 175.76 99.166 172.532 99.166C172.028 99.166 171.711 99.1614 171.632 99.1601L171.632 99.1598Z" fill="var(--primary)"/>
    <path d="M210.699 93.6671C206.821 92.8066 202.919 92.1537 201.184 91.877C202.097 89.7431 202.012 87.978 200.927 86.6218C199.47 84.799 196.645 84.2614 195.009 84.1036C196.279 81.4324 198.314 73.0293 188.286 54.2581C184.333 46.8485 178.258 41.9318 170.231 39.6448C157.494 36.0148 143.037 39.9444 136.502 42.8374C132.243 44.718 130.081 43.9497 127.576 43.0593C125.25 42.2324 122.612 41.2949 118.209 42.4916C113.647 43.7292 111.55 42.8589 109.699 42.09C108.172 41.4554 106.593 40.8 104.225 41.8266L104.146 41.8659C100.764 43.7826 97.692 46.0577 94.9922 48.6336C93.3946 45.2658 90.8354 45.3346 88.3536 45.4033C86.4195 45.4578 84.4198 45.5114 82.3191 44.1049C77.8623 41.205 72.0309 39.6046 65.4477 39.4681C64.0805 37.0859 61.3647 33.4465 57.1655 32.507C54.4084 31.89 51.4328 32.5125 48.3226 34.3566C41.2075 38.5647 41.2842 42.8749 42.7875 45.8969C39.6391 49.0431 37.1277 52.1173 35.3128 55.041C24.7385 58.15 15.6756 70.7231 14.0645 73.0621C14.0377 73.0621 14.0108 73.0618 13.9842 73.0618C9.77309 73.0618 7.77275 76.5139 7.68589 76.6677L7.57812 76.8585L7.62708 77.0648C7.71843 77.4516 10.0206 86.6379 23.2895 95.8012C24.9203 96.929 26.7651 97.9171 28.7932 98.7702L16.6924 106.961C16.4064 107.155 16.3237 107.487 16.4935 107.759C16.6303 107.977 16.901 108.108 17.1873 108.108C17.2562 108.108 17.3264 108.1 17.3953 108.084L42.4231 102.363L40.277 105.363C40.0988 105.613 40.143 105.93 40.3857 106.14C40.6287 106.349 41.0102 106.399 41.3191 106.262L49.2605 102.74C50.4155 103.933 52.5098 104.559 53.7555 104.841C55.7057 105.282 58.1825 105.462 59.8443 104.998C60.4643 105.794 61.5163 106.281 62.7898 106.333C62.8671 106.337 62.9444 106.338 63.0214 106.338C64.3916 106.338 65.7277 105.84 66.6424 105.031C67.1654 105.658 67.8015 106.032 68.543 106.146C69.7828 106.336 71.1547 105.801 72.8222 104.465C75.8975 106.994 82.2147 104.394 83.538 103.805C83.8141 103.835 84.3028 103.887 84.9646 103.952C80.3594 106.079 74.816 109.263 73.5861 112.697C73.4978 112.943 73.5948 113.21 73.833 113.375C73.9766 113.475 74.1551 113.526 74.3354 113.526C74.4539 113.526 74.573 113.504 74.6835 113.459L96.1615 104.616C103.071 104.757 108.514 104.32 112.415 103.317C112.959 105.881 113.426 109.921 111.83 112.594C111.666 112.869 111.757 113.201 112.048 113.389C112.19 113.481 112.36 113.526 112.53 113.526C112.71 113.526 112.889 113.476 113.034 113.375C113.297 113.191 117.987 109.856 119.413 104.784C125.088 106.301 135.182 106.764 145.386 106.764C148.123 106.764 150.865 106.731 153.534 106.675C155.195 108.421 157.095 111.043 156.684 113.6C156.633 113.912 156.863 114.209 157.227 114.302C157.304 114.322 157.381 114.331 157.458 114.331C157.746 114.331 158.02 114.199 158.156 113.976C158.285 113.765 160.625 109.856 159.781 106.506C162.204 106.425 164.496 106.333 166.575 106.239C174.163 105.895 181.897 105.398 189.033 104.819C193.951 106.161 202.547 108.802 206.666 111.854C206.815 111.964 207.002 112.019 207.188 112.019C207.382 112.019 207.576 111.959 207.727 111.84C208.022 111.608 208.051 111.227 207.794 110.965C207.571 110.739 203.573 106.711 198.665 103.954C207.056 103.117 213.813 102.198 217.252 101.36C219.258 100.872 221.913 100.045 221.812 98.5033C221.738 97.3839 220.408 95.8224 210.698 93.6671H210.699ZM216.811 100.121C207.307 102.436 171.764 105.49 145.522 105.489C132.381 105.489 121.567 104.723 117.535 102.715C116.728 102.313 116.264 101.887 116.156 101.448L115.939 100.566L114.998 101.018C107.346 104.689 88.6405 103.029 84.3738 102.591C84.3756 102.584 84.3771 102.575 84.3789 102.569C84.4031 102.472 84.4266 102.368 84.4496 102.256C84.4535 102.238 84.4565 102.218 84.4604 102.199C84.4792 102.103 84.4971 102.001 84.5135 101.895C84.5192 101.859 84.5246 101.824 84.5296 101.787C84.5466 101.667 84.5619 101.543 84.5744 101.412C84.5756 101.398 84.5774 101.385 84.5789 101.371C84.5917 101.229 84.6004 101.078 84.6064 100.924C84.6078 100.882 84.6087 100.839 84.6093 100.796C84.6123 100.669 84.612 100.538 84.609 100.404C84.6082 100.363 84.6081 100.324 84.6066 100.283C84.6004 100.113 84.589 99.938 84.5714 99.758C84.5675 99.7203 84.5622 99.6812 84.558 99.6432C84.5416 99.4944 84.5204 99.3426 84.4953 99.1876C84.4866 99.134 84.478 99.0807 84.4681 99.0264C84.4326 98.8314 84.3923 98.6337 84.341 98.4303C84.2917 98.2328 84.2353 98.0368 84.1726 97.8421C84.1541 97.7846 84.1311 97.728 84.1114 97.671C84.0642 97.5342 84.0177 97.3978 83.964 97.2628C83.9365 97.1939 83.9042 97.1263 83.875 97.0576C83.823 96.936 83.7726 96.8138 83.7153 96.6931C83.6804 96.6195 83.6404 96.5472 83.6033 96.4739C83.5457 96.3598 83.4896 96.2458 83.4269 96.133C83.3848 96.0574 83.338 95.9832 83.2938 95.9081C83.2302 95.7998 83.1675 95.6912 83.0992 95.584C83.0496 95.5065 82.9953 95.4302 82.9436 95.3532C82.8744 95.2505 82.8066 95.1479 82.7332 95.0464C82.6753 94.9665 82.6126 94.8877 82.552 94.8084C82.4785 94.7124 82.4063 94.6157 82.329 94.5206C82.2618 94.4382 82.1902 94.3572 82.1203 94.2758C82.0567 94.2015 81.9964 94.1264 81.9302 94.0529C80.6776 87.2537 80.5069 65.2724 95.2958 50.3356C98.1022 47.4967 101.364 45.013 104.99 42.9529C106.623 42.2586 107.52 42.6301 108.998 43.244C110.907 44.0371 113.522 45.1229 118.697 43.7181C122.538 42.6745 124.685 43.4377 126.959 44.2456C129.593 45.1816 132.318 46.1502 137.239 43.9753C143.551 41.1811 157.495 37.3815 169.722 40.8652C177.321 43.0302 183.085 47.7112 186.857 54.7784C198.645 76.8461 193.374 84.0382 193.144 84.3337L192.368 85.3294H193.801C193.843 85.3294 198.04 85.3524 199.624 87.3333C200.525 88.4596 200.447 90.0682 199.395 92.1142L199.011 92.8599L199.976 93.0031C200.028 93.0105 205.19 93.7806 210.302 94.9158C219.879 97.0421 220.242 98.4222 220.252 98.5722C220.254 98.6009 220.259 99.2814 216.811 100.12L216.811 100.121ZM196.182 104.194C198.229 105.165 200.206 106.474 201.876 107.734C198.897 106.457 195.591 105.357 192.75 104.506C193.916 104.404 195.061 104.3 196.183 104.194H196.182ZM157.934 110.734C157.424 109.205 156.453 107.789 155.459 106.631C156.382 106.608 157.292 106.583 158.187 106.556C158.604 107.908 158.344 109.454 157.934 110.734ZM113.915 102.875C114.291 102.75 114.655 102.621 114.994 102.483C115.351 102.977 115.932 103.425 116.729 103.822C117.079 103.996 117.476 104.16 117.908 104.316C117.221 106.871 115.613 108.988 114.248 110.41C114.771 107.774 114.354 104.852 113.915 102.875ZM84.2272 105.8C85.4514 105.195 86.6547 104.655 87.7416 104.193C89.222 104.309 90.9862 104.425 92.911 104.511L76.039 111.457C77.482 109.685 80.2621 107.759 84.2272 105.8ZM9.22025 77.0263C9.6722 76.3497 11.3904 74.1393 14.4386 74.3708L14.9481 74.4091L15.1944 74.0381C15.2872 73.8981 24.0746 60.7906 34.2924 56.7829C34.2291 56.8992 34.1727 57.015 34.1115 57.131C34.0369 57.273 33.9623 57.4146 33.8906 57.5563C33.7885 57.7582 33.6915 57.9599 33.5954 58.161C33.5309 58.2963 33.4649 58.4318 33.4032 58.5669C33.3061 58.7794 33.2154 58.9909 33.1252 59.2024C33.073 59.3251 33.0181 59.4483 32.9682 59.5705C32.8694 59.8134 32.7781 60.0553 32.6885 60.2969C32.6551 60.387 32.6181 60.4774 32.5858 60.5672C32.467 60.8995 32.3566 61.2307 32.2554 61.5605C32.2413 61.6061 32.2303 61.6516 32.2169 61.697C32.1321 61.9796 32.0521 62.2617 31.9804 62.5426C31.9524 62.6527 31.9294 62.7621 31.9034 62.8719C31.8524 63.0874 31.8016 63.3027 31.7581 63.5172C31.7324 63.6443 31.7112 63.7704 31.6882 63.8973C31.6524 64.0938 31.6171 64.2903 31.5879 64.486C31.5679 64.619 31.5518 64.7519 31.5348 64.8844C31.5106 65.0725 31.4882 65.2601 31.4703 65.4474C31.4572 65.5832 31.4467 65.7185 31.4369 65.8537C31.4234 66.0374 31.4127 66.2205 31.4049 66.4032C31.3992 66.5387 31.3954 66.6742 31.393 66.8093C31.3897 66.9912 31.3903 67.1721 31.393 67.353C31.3948 67.4868 31.3971 67.6206 31.4025 67.7541C31.4097 67.9368 31.4213 68.1187 31.4348 68.3006C31.4443 68.43 31.4524 68.5596 31.4649 68.6887C31.4831 68.8765 31.5073 69.0634 31.5318 69.25C31.5476 69.3714 31.5613 69.4931 31.5801 69.614C31.6118 69.8191 31.6509 70.0231 31.6906 70.2267C31.71 70.3272 31.7261 70.4284 31.7476 70.5286C31.8124 70.8319 31.8849 71.134 31.9676 71.4344C30.8822 72.7405 30.3201 74.2393 30.2915 75.9081C28.3535 75.5018 25.7066 75.1916 25.5791 75.1768C25.1549 75.1294 24.757 75.3733 24.6967 75.7267C24.6364 76.0802 24.934 76.4065 25.3615 76.4566C25.3958 76.4606 28.8314 76.8632 30.6159 77.324L30.6443 77.3344C32.6366 78.0591 35.1554 79.1469 37.1182 80.0259C37.1683 80.0785 37.2155 80.1317 37.2665 80.1841C33.2781 78.9731 25.8714 77.1547 17.3437 77.1547C17.2915 77.1547 17.2371 77.1547 17.1849 77.1549C16.7535 77.1559 16.4049 77.4459 16.4061 77.8028C16.4076 78.1588 16.7571 78.4469 17.1873 78.4466H17.19C28.7383 78.4303 38.4737 81.9389 39.6009 82.3605C39.6197 82.3765 39.64 82.3918 39.6588 82.4076C39.9666 82.6668 40.2827 82.9243 40.6075 83.18C40.6385 83.2044 40.6687 83.2288 40.7 83.253C44.7625 86.434 50.1211 89.3425 56.7117 91.9308C56.5189 92.0501 56.3335 92.1735 56.146 92.2959C56.0553 92.3551 55.9615 92.4127 55.8723 92.4727C55.5777 92.6704 55.2902 92.8713 55.0108 93.0747C54.9753 93.1006 54.9421 93.1272 54.9069 93.1531C54.6645 93.3316 54.4266 93.5113 54.1961 93.6927C54.0964 93.7712 54.0027 93.8505 53.9054 93.9295C53.7454 94.0593 53.5845 94.1887 53.4308 94.3192C53.3221 94.4116 53.2191 94.5036 53.1134 94.5962C52.9788 94.7142 52.8436 94.8317 52.714 94.9496C52.6066 95.0476 52.5042 95.1449 52.4003 95.2426C52.2818 95.3542 52.163 95.4655 52.0492 95.5766C51.9459 95.6776 51.8471 95.7773 51.7477 95.8778C51.6424 95.9841 51.5376 96.0903 51.437 96.1957C51.3394 96.2979 51.2456 96.3986 51.1522 96.4998C51.0594 96.6005 50.968 96.7005 50.8797 96.7997C50.7883 96.9022 50.7005 97.0029 50.6143 97.1033C50.5331 97.1979 50.4546 97.2912 50.3776 97.384C50.294 97.4849 50.2128 97.5844 50.1346 97.6831C50.0644 97.7712 49.9981 97.8571 49.9322 97.9433C49.8569 98.0415 49.7832 98.139 49.7137 98.234C49.6546 98.3152 49.5996 98.3935 49.5444 98.4723C49.4784 98.5665 49.4128 98.6603 49.3528 98.7509C49.3038 98.8247 49.2602 98.8951 49.2151 98.9664C49.1593 99.0548 49.1026 99.1437 49.0531 99.2278C49.0128 99.296 48.9793 99.3591 48.9432 99.4243C48.8993 99.5035 48.8533 99.5845 48.8157 99.6591C48.7817 99.7265 48.7563 99.7867 48.7274 99.8499C48.6981 99.9138 48.665 99.9809 48.6411 100.04C48.5966 100.151 48.5623 100.253 48.5366 100.348C48.5351 100.353 48.5318 100.361 48.5304 100.366C48.5304 100.366 48.5304 100.366 48.5304 100.367C48.5304 100.367 48.5301 100.368 48.5298 100.368C48.5295 100.369 48.5295 100.371 48.5292 100.372C48.493 100.507 48.4712 100.64 48.4596 100.773C48.4584 100.786 48.456 100.799 48.4551 100.812C48.4462 100.941 48.4506 101.068 48.4647 101.194C48.4659 101.204 48.4641 101.215 48.4656 101.225C38.2898 100.931 29.9485 98.7201 24.2922 94.8087C12.5636 86.709 9.64683 78.4358 9.22055 77.0256L9.22025 77.0263ZM93.8254 49.7844C93.7997 49.811 93.7758 49.8389 93.7501 49.8656C93.3244 50.305 92.9107 50.75 92.5095 51.2005C92.4707 51.2439 92.4322 51.2881 92.3937 51.3318C92.0116 51.764 91.6396 52.2007 91.2793 52.6418C91.1865 52.7549 91.096 52.8691 91.0044 52.9831C90.7124 53.3482 90.4256 53.7155 90.148 54.086C89.9927 54.2924 89.8411 54.5005 89.6897 54.7091C89.482 54.9961 89.2778 55.2844 89.0781 55.5742C88.9906 55.7011 88.8966 55.8247 88.8106 55.9523C79.5853 69.5918 79.2949 85.6585 80.1468 92.6551C75.5321 89.4097 67.6558 86.0838 58.2156 91.077C50.8659 88.2616 43.489 84.4729 38.6367 79.5386C36.0408 76.9066 34.3092 74.0828 33.4903 71.1472C33.3282 70.558 33.2029 69.9618 33.1136 69.3593C32.4888 65.1418 33.6447 60.6079 36.5617 55.8521C38.3495 52.9217 40.875 49.8229 44.0679 46.6419L44.1097 46.6036C47.1082 43.6401 55.5153 40.585 65.2152 40.7536C69.6251 40.8252 76.0047 41.6407 81.3439 45.1147C83.889 46.8184 86.3941 46.7508 88.4046 46.6948C90.9325 46.6269 92.6286 46.5789 93.8248 49.7846L93.8254 49.7844ZM48.5554 42.6037C48.6286 40.9242 49.5886 39.5016 51.4173 38.3677C52.2851 37.8301 53.1409 37.6049 53.9657 37.6049C55.8174 37.6049 57.5132 38.7402 58.8389 40.025C55.1251 40.4804 51.534 41.3808 48.5554 42.6037ZM39.4543 101.701L20.5447 106.023L30.3535 99.3836C33.0933 100.394 36.1381 101.171 39.4543 101.701ZM44.2971 102.281C45.0643 102.346 45.8428 102.398 46.6327 102.439L43.0472 104.029L44.2971 102.281Z" fill="#191919"/>
    <path d="M58.8401 40.0254C57.5144 38.7407 55.8186 37.6055 53.9669 37.6055C53.1421 37.6055 52.2863 37.8305 51.4185 38.3682C49.5898 39.5024 48.6298 40.9247 48.5566 42.6042C51.5352 41.3816 55.1263 40.4809 58.8401 40.0254Z" fill="var(--secondary)"/>
    <path d="M79.1966 68.3643C78.7704 68.4196 78.4787 68.7498 78.5453 69.1023C78.9065 71.0165 78.6086 72.3127 77.6599 72.9542C76.339 73.8475 74.0222 73.3457 73.3347 73.1687C73.1305 72.3147 72.2923 71.3737 71.5854 71.1607C70.6403 70.8764 69.5952 71.921 69.1818 72.8607C68.7683 73.8004 69.3075 75.0909 70.2526 75.3752C71.0203 75.6062 72.2774 75.1545 72.9434 74.4728C74.713 75.2002 75.6903 76.0335 75.8294 76.9557C76.0715 78.5567 73.8109 80.074 73.7879 80.089C73.4511 80.3109 73.3953 80.7168 73.6634 80.9959C73.8174 81.1564 74.0455 81.2403 74.2756 81.2403C74.4461 81.2403 74.6174 81.1944 74.7613 81.1001C74.8825 81.0204 77.7265 79.1227 77.3814 76.8017C77.2697 76.0503 76.8464 75.3609 76.1172 74.7369C76.9945 74.6764 77.8969 74.4614 78.6447 73.9576C80.0566 73.0058 80.5429 71.3051 80.0895 68.9031C80.0232 68.5502 79.6232 68.3092 79.1969 68.3643H79.1966Z" fill="#191919"/>
    <path d="M53.7581 73.0242C44.9361 73.1701 56.4584 83.1562 59.8167 84.4945C64.7061 86.443 64.7517 80.3299 64.6622 76.7453C64.5723 73.1607 62.58 72.8781 53.7581 73.0242ZM62.3084 76.0169C58.3743 77.6033 60.1991 80.9817 60.2788 81.1247C60.4588 81.4483 60.2889 81.8321 59.8982 81.982C59.7916 82.0227 59.6797 82.0422 59.5692 82.0422C59.2755 82.0422 58.9946 81.9047 58.862 81.6699C57.9546 80.064 57.3638 76.573 61.6236 74.8553C62.0111 74.699 62.4789 74.8323 62.6684 75.1527C62.8574 75.4736 62.6965 75.8604 62.3084 76.0169Z" fill="#191919"/>
    <path d="M66.5158 65.2403C70.4305 66.7818 72.1422 63.9225 75.9414 57.3371C79.7406 50.7517 63.5029 50.9625 57.8103 56.703C54.3687 60.1732 62.6011 63.6988 66.5158 65.2403ZM71.5282 56.3747C71.9473 56.2923 72.37 56.5045 72.4706 56.8516C72.5718 57.1981 72.3136 57.5474 71.8942 57.6308C66.8463 58.6364 67.7812 62.4876 67.8233 62.651C67.9138 63.0001 67.6448 63.3434 67.2227 63.4179C67.1678 63.4278 67.1125 63.4325 67.0585 63.4325C66.6979 63.4325 66.3737 63.2247 66.2955 62.9215C66.2821 62.8692 65.017 57.6716 71.5282 56.3747Z" fill="#191919"/>
    <path d="M67.058 63.433C67.112 63.433 67.1673 63.4284 67.2222 63.4185C67.6443 63.3437 67.9133 63.0006 67.8228 62.6516C67.7807 62.4884 66.8455 58.6372 71.8937 57.6314C72.3131 57.5477 72.571 57.1987 72.4701 56.8521C72.3695 56.5051 71.9468 56.2926 71.5277 56.3753C65.0165 57.6724 66.2816 62.8698 66.295 62.9221C66.3735 63.2252 66.6974 63.433 67.058 63.433Z" fill="#F7F7F7"/>
    <path d="M61.6249 74.8552C57.3651 76.5729 57.9561 80.0639 58.8633 81.6699C58.9958 81.9046 59.2768 82.0421 59.5705 82.0421C59.6806 82.0421 59.7929 82.0226 59.8995 81.9819C60.2899 81.8321 60.4601 81.4482 60.2801 81.1246C60.2004 80.9814 58.3755 77.603 62.3097 76.0168C62.6977 75.8603 62.8586 75.4735 62.6697 75.1529C62.4801 74.8325 62.0126 74.699 61.6249 74.8552Z" fill="#F7F7F7"/>
    <path d="M26.653 94.0059C26.7846 94.0654 29.9283 95.4761 34.1997 96.6574C37.9628 97.6986 41.3259 98.2204 44.2537 98.2204C45.8367 98.2204 47.2931 98.0674 48.6153 97.7618C49.0308 97.6658 49.2738 97.3093 49.1574 96.9657C49.0409 96.6221 48.6096 96.4222 48.1947 96.5175C39.8906 98.4379 27.5256 92.928 27.4017 92.8717C27.0229 92.7014 26.5485 92.8164 26.3416 93.1294C26.1351 93.4429 26.2745 93.8351 26.6533 94.0057L26.653 94.0059Z" fill="#191919"/>
    <path d="M115.955 90.9371C116.014 90.9371 116.073 90.9316 116.133 90.9205C116.553 90.8398 116.814 90.4925 116.717 90.1449C116.699 90.0822 114.978 83.7911 116.568 76.3514C118.686 66.4432 125.368 59.2942 136.427 55.1044C136.819 54.9556 136.991 54.5723 136.811 54.2479C136.631 53.9233 136.168 53.7819 135.776 53.9295C121.363 59.3906 116.533 69.0391 115.02 76.172C113.388 83.8637 115.121 90.1731 115.195 90.4379C115.279 90.7361 115.6 90.9371 115.955 90.9371Z" fill="#191919"/>
    <path d="M105.467 80.8401C105.543 80.8401 105.621 80.831 105.698 80.811C106.11 80.7061 106.341 80.3442 106.214 80.0036C106.179 79.909 102.733 70.468 106.387 63.0291C106.549 62.6988 106.357 62.3219 105.957 62.1878C105.556 62.0523 105.102 62.2126 104.939 62.5433C101.078 70.4044 104.57 79.9801 104.721 80.3839C104.824 80.6616 105.133 80.8401 105.467 80.8401Z" fill="#191919"/>
    <path d="M191.359 89.8447C191.061 89.587 190.566 89.5781 190.254 89.8252C184.055 94.7375 165.716 96.5468 165.531 96.5643C165.102 96.6053 164.795 96.9259 164.845 97.2804C164.891 97.6097 165.229 97.8523 165.62 97.8523C165.65 97.8523 165.681 97.8508 165.711 97.8476C166.486 97.7736 184.758 95.9702 191.336 90.758C191.647 90.5112 191.658 90.1022 191.359 89.8447Z" fill="#191919"/>
    <path d="M89.7698 82.0732C89.6733 82.0732 89.5733 82.0735 89.476 82.0747C89.0447 82.0786 88.6987 82.3707 88.7032 82.7276C88.7079 83.082 89.0566 83.3664 89.4844 83.3664H89.493C89.5859 83.3657 89.6757 83.3654 89.7677 83.3654C104.169 83.3654 109.948 93.6013 110.005 93.7054C110.136 93.9441 110.42 94.0853 110.718 94.0853C110.825 94.0853 110.934 94.0668 111.039 94.028C111.431 93.8812 111.606 93.4991 111.429 93.1742C111.368 93.0624 105.203 82.0732 89.7698 82.0732Z" fill="#191919"/>
    <path d="M191.445 95.5391C191.205 95.2424 190.719 95.1627 190.361 95.3609C185.464 98.068 171.803 97.8715 171.664 97.8685C171.236 97.8752 170.876 98.1447 170.867 98.5014C170.858 98.8581 171.201 99.1531 171.632 99.1605C171.711 99.162 172.028 99.1664 172.532 99.1664C175.761 99.1664 186.64 98.9717 191.229 96.4352C191.587 96.237 191.684 95.8356 191.444 95.5389L191.445 95.5391Z" fill="#191919"/>
    <path d="M159.477 45.5958C143.029 51.4639 132.625 61.1851 126.793 68.3066C120.474 76.0237 118.076 82.2635 117.977 82.5254C117.848 82.8658 118.078 83.2279 118.49 83.3345C118.567 83.3548 118.646 83.3643 118.723 83.3643C119.056 83.3643 119.364 83.1874 119.469 82.9112C119.563 82.6609 129.301 57.7691 160.097 46.7821C160.493 46.641 160.676 46.2606 160.505 45.933C160.334 45.6062 159.875 45.4546 159.478 45.5958H159.477Z" fill="#191919"/>
    <path d="M91.0381 19.5013L99.2941 19.8957L93.5564 22.8857C93.1638 23.0903 92.982 23.4847 93.111 23.8535C93.2397 24.222 93.6477 24.476 94.1119 24.476H106.738C107.314 24.476 107.78 24.0904 107.78 23.6145C107.78 23.1386 107.314 22.7531 106.738 22.7531H97.7189L103.156 19.9199C103.539 19.7202 103.722 19.3388 103.609 18.9762C103.496 18.6136 103.113 18.3527 102.66 18.331L91.1584 17.7811C90.5772 17.7609 90.0915 18.1168 90.0584 18.5917C90.0253 19.0666 90.4641 19.4737 91.0381 19.5013Z" fill="var(--primary)"/>
    <path d="M99.8793 12.7713L114.888 15.4678C114.962 15.4813 115.037 15.4875 115.11 15.4875C115.589 15.4875 116.021 15.2121 116.127 14.809C116.249 14.3439 115.892 13.885 115.33 13.7841L103.401 11.6408L113.625 7.81925C114.068 7.65362 114.313 7.25722 114.217 6.86351C114.121 6.46981 113.709 6.18323 113.223 6.17311L101.638 5.92627C101.07 5.92553 100.585 6.28985 100.57 6.76501C100.555 7.24067 101.009 7.63609 101.584 7.64843L108.622 7.79828L99.6712 11.1441C99.262 11.2974 99.0172 11.6502 99.0644 12.0199C99.1115 12.3892 99.4399 12.6921 99.879 12.7711L99.8793 12.7713Z" fill="var(--primary)"/>
    <path d="M85.1212 36.3351C85.2935 36.6429 85.6651 36.8347 86.066 36.8347C86.118 36.8347 86.1705 36.8315 86.223 36.8248L102.317 34.8024C102.885 34.7309 103.277 34.2918 103.19 33.8215C103.103 33.3508 102.572 33.0272 102.004 33.0993L89.4568 34.6758L96.8501 29.3565C97.1907 29.1114 97.3018 28.7127 97.1248 28.3691C96.9477 28.0255 96.52 27.8158 96.074 27.8486L85.9747 28.5936C85.4015 28.6358 84.9785 29.0541 85.0296 29.528C85.0806 30.002 85.5878 30.3537 86.1597 30.3095L93.0593 29.8008L85.3833 35.3233C85.0337 35.5748 84.9272 35.9873 85.1218 36.3348L85.1212 36.3351Z" fill="var(--primary)"/>
    <path d="M80.02 57.5551C79.1695 57.2544 77.8459 58.2371 77.0638 59.75C76.2817 61.2628 76.3372 62.733 77.188 63.0336C78.0387 63.3343 79.3621 62.3516 80.1442 60.8387C80.9263 59.3259 80.8705 57.8557 80.02 57.5551Z" fill="var(--secondary)"/>
    <path d="M67.8412 80.6013C66.9268 80.4858 65.942 81.7108 65.642 83.3372C65.342 84.9636 65.8399 86.3758 66.7543 86.491C67.6686 86.6063 68.6534 85.3815 68.9534 83.7549C69.2534 82.1284 68.7555 80.7168 67.8412 80.6013Z" fill="var(--secondary)"/>
</svg>
