<svg width="1002" height="857" viewBox="0 0 1002 857" fill="none" xmlns="http://www.w3.org/2000/svg">
<path d="M842.315 15C859.519 15 927.829 41.3099 957.756 59.5245C1006.6 89.2518 993.682 126.311 923.347 126.311C872.747 126.311 772.15 95.3359 699.694 78.751C657.696 69.1378 529.171 54.9709 503.365 86.3404C477.559 117.71 608.287 139.529 638.902 146.55C715 164 847.953 198.158 847.953 268.486C847.953 360.571 681.478 370.69 632.396 370.69C583.313 370.69 359.993 335.037 306.757 328.5C249.073 321.417 143.752 321.758 116.5 328.5C67.4177 340.643 27.9739 369.678 15.5782 460.751C8.48515 512.865 67.6965 573.074 135.501 588.759C202.556 604.27 336.5 662 409.248 677.809C515.063 700.804 605.578 694 699.694 694C699.694 694 744.222 696.221 759.908 697.542C812.027 701.93 869.205 707.661 894.505 713.732C919.805 719.804 943.082 739.536 943.082 763.823C943.082 788.109 933.973 808.347 867.687 842.246" stroke="url(#paint0_linear_160_795)" stroke-width="29" stroke-linecap="round"/>
<defs>
<linearGradient id="paint0_linear_160_795" x1="501" y1="15" x2="501" y2="842.246" gradientUnits="userSpaceOnUse">
<stop offset="0.0889996" stop-color="#9FE0C9"/>
<stop offset="1" stop-color="#489279"/>
</linearGradient>
</defs>
</svg>
